{
	"asset":{
		"generator":"Khronos glTF Blender I/O v3.6.27",
		"version":"2.0"
	},
	"scene":0,
	"scenes":[
		{
			"name":"Scene",
			"nodes":[
				0,
				1,
				2,
				3
			]
		}
	],
	"nodes":[
		{
			"mesh":0,
			"name":"JellyFish006",
			"rotation":[
				0,
				0.843391478061676,
				0,
				0.5372995734214783
			],
			"scale":[
				0.00044912699377164245,
				0.0002558169944677502,
				0.00044912699377164245
			],
			"translation":[
				-0.2846798896789551,
				3.7149200439453125,
				5.022585868835449
			]
		},
		{
			"mesh":1,
			"name":"JellyFish004",
			"rotation":[
				-0.01760374754667282,
				0.21637526154518127,
				0.016887180507183075,
				0.9760055541992188
			],
			"scale":[
				0.0012443170417100191,
				0.001000000280328095,
				0.0012443170417100191
			],
			"translation":[
				0.8967204093933105,
				6.217440605163574,
				3.019041061401367
			]
		},
		{
			"mesh":2,
			"name":"JellyFish003",
			"rotation":[
				0,
				0.2164396345615387,
				0,
				0.9762960076332092
			],
			"scale":[
				0.0010000000474974513,
				0.0010000000474974513,
				0.0010000000474974513
			],
			"translation":[
				-1.6933016777038574,
				7.126261234283447,
				3.586530923843384
			]
		},
		{
			"mesh":3,
			"name":"Bubbles001",
			"scale":[
				0.00023539150424767286,
				0.00023539150424767286,
				0.00023539150424767286
			],
			"translation":[
				3.8682150840759277,
				4.938044548034668,
				0.13192054629325867
			]
		}
	],
	"materials":[
		{
			"doubleSided":true,
			"name":"Material.001",
			"pbrMetallicRoughness":{
				"baseColorFactor":[
					0.022097669541835785,
					0.08749552816152573,
					0.142392098903656,
					1
				],
				"metallicFactor":0,
				"roughnessFactor":0.5
			}
		}
	],
	"meshes":[
		{
			"name":"Mesh.160",
			"primitives":[
				{
					"attributes":{
						"POSITION":0,
						"NORMAL":1,
						"TEXCOORD_0":2
					},
					"indices":3,
					"material":0
				}
			]
		},
		{
			"name":"Mesh.009",
			"primitives":[
				{
					"attributes":{
						"COLOR_0":4,
						"POSITION":5,
						"NORMAL":6,
						"TEXCOORD_0":7
					},
					"indices":8,
					"material":0
				}
			]
		},
		{
			"name":"Mesh.008",
			"primitives":[
				{
					"attributes":{
						"POSITION":9,
						"NORMAL":10,
						"TEXCOORD_0":11
					},
					"indices":12,
					"material":0
				}
			]
		},
		{
			"name":"Mesh.011",
			"primitives":[
				{
					"attributes":{
						"POSITION":13,
						"NORMAL":14,
						"TEXCOORD_0":15
					},
					"indices":16,
					"material":0
				}
			]
		}
	],
	"accessors":[
		{
			"bufferView":0,
			"componentType":5126,
			"count":5217,
			"max":[
				900.4772338867188,
				516.3455200195312,
				900.47705078125
			],
			"min":[
				-970.90673828125,
				-6484.0869140625,
				-953.3397216796875
			],
			"type":"VEC3"
		},
		{
			"bufferView":1,
			"componentType":5126,
			"count":5217,
			"type":"VEC3"
		},
		{
			"bufferView":2,
			"componentType":5126,
			"count":5217,
			"type":"VEC2"
		},
		{
			"bufferView":3,
			"componentType":5123,
			"count":18876,
			"type":"SCALAR"
		},
		{
			"bufferView":4,
			"componentType":5123,
			"count":5919,
			"normalized":true,
			"type":"VEC4"
		},
		{
			"bufferView":5,
			"componentType":5126,
			"count":5919,
			"max":[
				900.4772338867188,
				516.3455200195312,
				900.47705078125
			],
			"min":[
				-974.2142944335938,
				-6447.9453125,
				-958.7776489257812
			],
			"type":"VEC3"
		},
		{
			"bufferView":6,
			"componentType":5126,
			"count":5919,
			"type":"VEC3"
		},
		{
			"bufferView":7,
			"componentType":5126,
			"count":5919,
			"type":"VEC2"
		},
		{
			"bufferView":8,
			"componentType":5123,
			"count":20088,
			"type":"SCALAR"
		},
		{
			"bufferView":9,
			"componentType":5126,
			"count":3089,
			"max":[
				900.4769287109375,
				719.4036865234375,
				900.47705078125
			],
			"min":[
				-900.4771728515625,
				-8179.345703125,
				-900.47705078125
			],
			"type":"VEC3"
		},
		{
			"bufferView":10,
			"componentType":5126,
			"count":3089,
			"type":"VEC3"
		},
		{
			"bufferView":11,
			"componentType":5126,
			"count":3089,
			"type":"VEC2"
		},
		{
			"bufferView":12,
			"componentType":5123,
			"count":11340,
			"type":"SCALAR"
		},
		{
			"bufferView":13,
			"componentType":5126,
			"count":28841,
			"max":[
				13618.171875,
				10680.07421875,
				32726.16796875
			],
			"min":[
				-39347.98046875,
				-15590.6630859375,
				-3247.210205078125
			],
			"type":"VEC3"
		},
		{
			"bufferView":14,
			"componentType":5126,
			"count":28841,
			"type":"VEC3"
		},
		{
			"bufferView":15,
			"componentType":5126,
			"count":28841,
			"type":"VEC2"
		},
		{
			"bufferView":16,
			"componentType":5123,
			"count":128352,
			"type":"SCALAR"
		}
	],
	"bufferViews":[
		{
			"buffer":0,
			"byteLength":62604,
			"byteOffset":0,
			"target":34962
		},
		{
			"buffer":0,
			"byteLength":62604,
			"byteOffset":62604,
			"target":34962
		},
		{
			"buffer":0,
			"byteLength":41736,
			"byteOffset":125208,
			"target":34962
		},
		{
			"buffer":0,
			"byteLength":37752,
			"byteOffset":166944,
			"target":34963
		},
		{
			"buffer":0,
			"byteLength":47352,
			"byteOffset":204696,
			"target":34962
		},
		{
			"buffer":0,
			"byteLength":71028,
			"byteOffset":252048,
			"target":34962
		},
		{
			"buffer":0,
			"byteLength":71028,
			"byteOffset":323076,
			"target":34962
		},
		{
			"buffer":0,
			"byteLength":47352,
			"byteOffset":394104,
			"target":34962
		},
		{
			"buffer":0,
			"byteLength":40176,
			"byteOffset":441456,
			"target":34963
		},
		{
			"buffer":0,
			"byteLength":37068,
			"byteOffset":481632,
			"target":34962
		},
		{
			"buffer":0,
			"byteLength":37068,
			"byteOffset":518700,
			"target":34962
		},
		{
			"buffer":0,
			"byteLength":24712,
			"byteOffset":555768,
			"target":34962
		},
		{
			"buffer":0,
			"byteLength":22680,
			"byteOffset":580480,
			"target":34963
		},
		{
			"buffer":0,
			"byteLength":346092,
			"byteOffset":603160,
			"target":34962
		},
		{
			"buffer":0,
			"byteLength":346092,
			"byteOffset":949252,
			"target":34962
		},
		{
			"buffer":0,
			"byteLength":230728,
			"byteOffset":1295344,
			"target":34962
		},
		{
			"buffer":0,
			"byteLength":256704,
			"byteOffset":1526072,
			"target":34963
		}
	],
	"buffers":[
		{
			"byteLength":1782776,
			"uri":"data:application/octet-stream;base64,"
		}
	]
}
